<svg width="80" height="80" viewBox="0 0 80 80" fill="none" xmlns="http://www.w3.org/2000/svg">
<rect width="80" height="80" rx="40" fill="white"/>
<path d="M23.9541 25.1023C21.9216 25.3193 19.6151 26.13 17.7768 27.2718C16.5664 28.0254 14.7281 29.7496 13.8146 30.9714C13.0039 32.0561 11.8963 34.2941 11.5652 35.4816C10.8116 38.2334 10.8116 40.951 11.5652 43.7028C11.8963 44.8903 13.0039 47.1283 13.8146 48.2131C14.7281 49.4348 16.5664 51.159 17.7768 51.9126C23.3832 55.4066 30.7594 54.7558 35.4295 50.3711C36.4229 49.4348 38.8779 46.6716 38.8322 46.546C38.7751 46.3861 34.1621 41.0766 34.0708 41.0766C34.0365 41.0766 33.2258 41.9672 32.2781 43.052C30.965 44.5592 30.3598 45.1644 29.7546 45.564C26.0551 48.0189 21.0538 46.8314 19.0556 43.0177C16.9318 38.987 18.8958 34.1457 23.2233 32.6841C24.034 32.4215 24.3766 32.3644 25.4385 32.3644C27.2768 32.353 28.5443 32.7412 29.983 33.7803C30.4511 34.1114 32.5179 36.4179 37.2222 41.853C40.8418 46.0436 44.176 49.823 44.6213 50.2569C45.9572 51.5472 47.9669 52.7918 49.7938 53.4541C52.009 54.2419 55.2061 54.5046 57.3527 54.0592C63.4273 52.7918 67.8005 48.4528 69.0794 42.4468C69.3534 41.1108 69.3534 38.1992 69.0794 36.8861C67.869 31.1997 63.7699 26.8722 58.2891 25.4791C53.5276 24.2688 48.3551 25.5248 44.8725 28.7448C43.8449 29.7039 41.3442 32.5014 41.3899 32.6384C41.447 32.7983 46.06 38.1078 46.1514 38.1078C46.1856 38.1078 46.9963 37.2172 47.944 36.1324C49.2571 34.6252 49.8623 34.02 50.4675 33.6204C54.795 30.743 60.5385 32.8782 61.8059 37.8338C62.7422 41.4991 60.607 45.3356 56.9759 46.5117C56.1995 46.7629 55.8227 46.82 54.7836 46.82C52.9338 46.8314 51.5751 46.3975 50.1364 45.3356C49.7938 45.0958 46.905 41.8416 42.9885 37.3314C39.3689 33.1523 36.1032 29.4413 35.7264 29.0759C33.3171 26.7808 30.4511 25.4563 27.117 25.1023C25.8153 24.9653 25.2901 24.9653 23.9541 25.1023Z" fill="black"/>
</svg>
